<?xml version="1.0" encoding="UTF-8"?>
<!DOCTYPE svg PUBLIC "-//W3C//DTD SVG 1.1//EN" "http://www.w3.org/Graphics/SVG/1.1/DTD/svg11.dtd">
<svg xmlns="http://www.w3.org/2000/svg" version="1.1" width="736px" height="159px" style="shape-rendering:geometricPrecision; text-rendering:geometricPrecision; image-rendering:optimizeQuality; fill-rule:evenodd; clip-rule:evenodd" xmlns:xlink="http://www.w3.org/1999/xlink">
<g><path style="opacity:1" fill="#511293" d="M 415.5,96.5 C 415.5,88.5 415.5,80.5 415.5,72.5C 412.833,72.5 410.167,72.5 407.5,72.5C 405.83,72.2488 404.33,71.5822 403,70.5C 400.148,63.9717 399.814,57.3051 402,50.5C 402.792,48.3563 404.292,47.023 406.5,46.5C 409.5,46.5 412.5,46.5 415.5,46.5C 415.5,39.8333 415.5,33.1667 415.5,26.5C 416.793,19.3719 421.126,16.3719 428.5,17.5C 434.689,16.7208 439.189,19.0541 442,24.5C 442.5,31.4921 442.666,38.4921 442.5,45.5C 462.163,41.6603 469.663,49.3269 465,68.5C 463.833,69.6667 462.667,70.8333 461.5,72C 455.258,73.3696 448.925,73.8696 442.5,73.5C 442.124,82.2354 442.624,90.9021 444,99.5C 447.978,101.057 452.145,101.89 456.5,102C 461.889,106.167 463.723,111.667 462,118.5C 461.394,121.548 459.894,124.048 457.5,126C 445.74,129.086 434.74,127.419 424.5,121C 417.658,114.314 414.658,106.148 415.5,96.5 Z"/></g>
<g><path style="opacity:0.004" fill="#e0dae6" d="M 415.5,26.5 C 415.5,33.1667 415.5,39.8333 415.5,46.5C 412.5,46.5 409.5,46.5 406.5,46.5C 408.948,45.5269 411.615,45.1936 414.5,45.5C 414.177,38.9779 414.51,32.6446 415.5,26.5 Z"/></g>
<g><path style="opacity:1" fill="#49197b" d="M 357.5,43.5 C 369.111,42.6569 380.111,44.8236 390.5,50C 395.548,54.873 395.714,60.0396 391,65.5C 389.457,67.3783 387.624,68.8783 385.5,70C 378.959,68.5538 372.293,67.3871 365.5,66.5C 363.167,66.6667 360.833,66.8333 358.5,67C 357.144,69.274 357.644,71.1073 360,72.5C 369.122,73.9889 377.956,76.4889 386.5,80C 394.351,85.3419 398.351,92.8419 398.5,102.5C 397.22,117.281 389.22,125.781 374.5,128C 360.957,130.305 347.957,128.305 335.5,122C 329.426,119.101 327.926,114.601 331,108.5C 332.738,104.759 335.238,101.592 338.5,99C 341.207,98.6717 343.874,99.005 346.5,100C 353.819,105.396 361.819,107.063 370.5,105C 371.167,104.333 371.833,103.667 372.5,103C 370.779,101.473 368.779,100.473 366.5,100C 354.272,98.6368 344.105,93.4701 336,84.5C 326.935,61.954 334.101,48.2873 357.5,43.5 Z"/></g>
<g><path style="opacity:0.808" fill="#4c0891" d="M 512.5,44.5 C 540.079,45.746 555.412,60.0794 558.5,87.5C 555.9,113.266 541.734,127.6 516,130.5C 490.266,127.6 476.1,113.266 473.5,87.5C 475.764,63.2436 488.764,48.9103 512.5,44.5 Z M 512.5,48.5 C 538.412,49.4128 552.745,62.7461 555.5,88.5C 552.766,112.068 539.599,125.068 516,127.5C 494.51,125.838 481.677,114.505 477.5,93.5C 483.167,93.5 488.833,93.5 494.5,93.5C 494.5,92.1667 494.5,90.8333 494.5,89.5C 488.5,89.5 482.5,89.5 476.5,89.5C 476.5,88.5 476.5,87.5 476.5,86.5C 482.5,86.5 488.5,86.5 494.5,86.5C 494.5,85.1667 494.5,83.8333 494.5,82.5C 488.833,82.5 483.167,82.5 477.5,82.5C 481.322,63.01 492.989,51.6767 512.5,48.5 Z"/></g>
<g><path style="opacity:1" fill="#6c10d5" d="M 667.5,43.5 C 689.218,41.2592 703.718,50.2592 711,70.5C 711.984,76.6928 711.318,82.6928 709,88.5C 706.736,91.4335 703.902,93.6001 700.5,95C 687.171,95.4999 673.837,95.6666 660.5,95.5C 660.343,96.8734 660.51,98.2068 661,99.5C 663.251,101.377 665.751,102.877 668.5,104C 677.995,105.334 687.161,104.168 696,100.5C 703.175,102.815 707.008,107.815 707.5,115.5C 706.082,121.419 702.415,125.253 696.5,127C 679.952,131.421 663.952,130.087 648.5,123C 631.152,108.788 625.986,90.9544 633,69.5C 640.304,55.1145 651.804,46.4478 667.5,43.5 Z M 673.5,68.5 C 677.057,68.911 680.224,70.2444 683,72.5C 683.814,74.9018 683.647,77.2351 682.5,79.5C 674.883,80.6334 667.216,80.8001 659.5,80C 662.263,73.7277 666.929,69.8944 673.5,68.5 Z"/></g>
<g><path style="opacity:1" fill="#640fc1" d="M 607.5,44.5 C 626.927,42.7308 633.093,50.7308 626,68.5C 624.127,70.7089 621.96,72.5422 619.5,74C 615.408,73.9217 611.408,73.0884 607.5,71.5C 602.948,71.6341 599.115,73.3008 596,76.5C 594.983,91.8081 593.983,107.141 593,122.5C 591.363,124.81 589.196,126.31 586.5,127C 581.411,127.826 576.411,127.492 571.5,126C 569.448,125.07 567.948,123.57 567,121.5C 566.333,98.1667 566.333,74.8333 567,51.5C 568.167,49 570,47.1667 572.5,46C 577.5,45.3333 582.5,45.3333 587.5,46C 590.756,47.587 592.923,50.087 594,53.5C 597.826,49.3476 602.326,46.3476 607.5,44.5 Z"/></g>
<g><path style="opacity:1" fill="#2d292d" d="M 19.5,45.5 C 24.5111,45.3341 29.5111,45.5007 34.5,46C 38.205,47.6994 40.3717,50.5328 41,54.5C 47.7115,46.485 56.2115,43.6517 66.5,46C 82.1225,51.381 91.6225,62.2143 95,78.5C 95.6667,92.5 95.6667,106.5 95,120.5C 93.8783,122.624 92.3783,124.457 90.5,126C 84.5,128 78.5,128 72.5,126C 71.3333,124.833 70.1667,123.667 69,122.5C 67.7028,109.261 67.0361,95.9276 67,82.5C 65.2803,76.2144 61.1136,73.2144 54.5,73.5C 47.8864,73.2144 43.7197,76.2144 42,82.5C 41.945,95.9024 41.2783,109.236 40,122.5C 36.5647,126.284 32.2313,127.951 27,127.5C 22.0637,127.969 18.0637,126.302 15,122.5C 13.3543,99.2547 13.0209,75.9214 14,52.5C 14.9383,49.4025 16.7716,47.0691 19.5,45.5 Z"/></g>
<g><path style="opacity:1" fill="#382548" d="M 112.5,45.5 C 117.844,45.334 123.177,45.5006 128.5,46C 132.816,48.1256 134.983,51.6256 135,56.5C 135.333,68.5 135.667,80.5 136,92.5C 141.572,99.7643 148.406,101.098 156.5,96.5C 157.861,94.9716 159.028,93.3049 160,91.5C 160.073,77.7783 160.74,64.1116 162,50.5C 165.253,46.1394 169.586,44.4728 175,45.5C 183.507,44.3442 188.173,48.0109 189,56.5C 189.667,76.5 189.667,96.5 189,116.5C 188.193,124.507 183.693,128.174 175.5,127.5C 168.071,128.382 163.238,125.382 161,118.5C 151.617,128.319 140.784,130.152 128.5,124C 114.829,116.165 107.662,104.332 107,88.5C 106.333,76.8333 106.333,65.1667 107,53.5C 107.625,49.8907 109.458,47.224 112.5,45.5 Z"/></g>
<g><path style="opacity:1" fill="#3f1c60" d="M 207.5,45.5 C 212.179,45.3342 216.845,45.5008 221.5,46C 225.165,47.668 227.332,50.5013 228,54.5C 236.974,44.6718 247.474,42.8384 259.5,49C 262.704,51.8688 265.537,55.0354 268,58.5C 278.428,44.574 291.262,41.7407 306.5,50C 313.616,55.4499 317.783,62.6166 319,71.5C 320.529,87.1341 320.862,102.801 320,118.5C 318.302,125.579 313.802,128.579 306.5,127.5C 301.384,128.075 297.217,126.408 294,122.5C 292.703,109.261 292.036,95.9276 292,82.5C 290.308,74.0698 285.474,71.5698 277.5,75C 276.283,76.6477 275.45,78.481 275,80.5C 274.948,94.5684 274.281,108.568 273,122.5C 271.363,124.81 269.196,126.31 266.5,127C 261.411,127.826 256.411,127.492 251.5,126C 249.622,124.457 248.122,122.624 247,120.5C 246.929,106.445 246.262,92.4452 245,78.5C 241.666,73.3523 237.166,72.1856 231.5,75C 230.283,76.6477 229.45,78.481 229,80.5C 228.948,94.5684 228.281,108.568 227,122.5C 225.363,124.81 223.196,126.31 220.5,127C 215.411,127.826 210.411,127.492 205.5,126C 203.622,124.457 202.122,122.624 201,120.5C 200.333,97.8333 200.333,75.1667 201,52.5C 202.018,48.9853 204.185,46.652 207.5,45.5 Z"/></g>
<g><path style="opacity:0.004" fill="#e4e0e8" d="M 407.5,72.5 C 410.167,72.5 412.833,72.5 415.5,72.5C 415.5,80.5 415.5,88.5 415.5,96.5C 414.508,89.0182 414.175,81.3516 414.5,73.5C 411.941,73.8016 409.607,73.4682 407.5,72.5 Z"/></g>
<g><path style="opacity:0.903" fill="#4c0891" d="M 513.5,75.5 C 525.553,76.9459 529.386,83.2792 525,94.5C 518.667,101.167 512.333,101.167 506,94.5C 501.938,85.5112 504.438,79.1779 513.5,75.5 Z"/></g>
</svg>
