<?xml version="1.0" encoding="UTF-8"?>
<!DOCTYPE svg PUBLIC "-//W3C//DTD SVG 1.1//EN" "http://www.w3.org/Graphics/SVG/1.1/DTD/svg11.dtd">
<svg xmlns="http://www.w3.org/2000/svg" version="1.1" width="969px" height="515px" style="shape-rendering:geometricPrecision; text-rendering:geometricPrecision; image-rendering:optimizeQuality; fill-rule:evenodd; clip-rule:evenodd" xmlns:xlink="http://www.w3.org/1999/xlink">
<g><path style="opacity:1" fill="#b27eae" d="M 525.5,120.5 C 522.146,122.12 518.646,123.453 515,124.5C 513.594,123.586 512.094,122.92 510.5,122.5C 506.591,119.282 506.591,115.949 510.5,112.5C 516.814,112.162 521.814,114.829 525.5,120.5 Z"/></g>
<g><path style="opacity:0.997" fill="#7372a3" d="M 585.5,121.5 C 585.5,124.167 585.5,126.833 585.5,129.5C 584.007,128.688 583.34,127.355 583.5,125.5C 583.34,123.645 584.007,122.312 585.5,121.5 Z"/></g>
<g><path style="opacity:1" fill="#8d6992" d="M 602.5,129.5 C 597.928,133.549 592.928,134.216 587.5,131.5C 586.5,131.167 585.833,130.5 585.5,129.5C 585.5,126.833 585.5,124.167 585.5,121.5C 585.611,120.883 585.944,120.383 586.5,120C 588.5,119.333 590.5,119.333 592.5,120C 595.729,123.399 599.062,126.565 602.5,129.5 Z"/></g>
<g><path style="opacity:1" fill="#a074a0" d="M 525.5,120.5 C 530.461,124.126 535.128,128.126 539.5,132.5C 539.859,134.371 540.859,135.871 542.5,137C 539.308,139.566 535.642,141.066 531.5,141.5C 524.175,135.508 517.175,129.175 510.5,122.5C 512.094,122.92 513.594,123.586 515,124.5C 518.646,123.453 522.146,122.12 525.5,120.5 Z"/></g>
<g><path style="opacity:0.997" fill="#816287" d="M 602.5,129.5 C 606.167,132.833 609.833,136.167 613.5,139.5C 609.154,138.648 605.154,139.648 601.5,142.5C 602.193,143.518 602.859,144.518 603.5,145.5C 597.865,141.199 592.532,136.533 587.5,131.5C 592.928,134.216 597.928,133.549 602.5,129.5 Z"/></g>
<g><path style="opacity:1" fill="#926b94" d="M 539.5,132.5 C 541.833,134.167 543.833,136.167 545.5,138.5C 545.5,143.5 545.5,148.5 545.5,153.5C 540.514,149.845 535.847,145.845 531.5,141.5C 535.642,141.066 539.308,139.566 542.5,137C 540.859,135.871 539.859,134.371 539.5,132.5 Z"/></g>
<g><path style="opacity:1" fill="#5d77ad" d="M 545.5,138.5 C 546.833,139.167 547.833,140.167 548.5,141.5C 548.5,146.5 548.5,151.5 548.5,156.5C 547.167,155.833 546.167,154.833 545.5,153.5C 545.5,148.5 545.5,143.5 545.5,138.5 Z"/></g>
<g><path style="opacity:0.998" fill="#745d80" d="M 613.5,139.5 C 615.167,140.5 616.5,141.833 617.5,143.5C 617.5,148.5 617.5,153.5 617.5,158.5C 612.206,154.873 607.539,150.54 603.5,145.5C 602.859,144.518 602.193,143.518 601.5,142.5C 605.154,139.648 609.154,138.648 613.5,139.5 Z"/></g>
<g><path style="opacity:1" fill="#5e5373" d="M 685.5,151.5 C 681.537,150.451 677.871,151.284 674.5,154C 673.748,154.671 673.414,155.504 673.5,156.5C 670.15,153.649 666.983,150.649 664,147.5C 663.682,139.728 667.182,137.561 674.5,141C 678.062,144.732 681.729,148.232 685.5,151.5 Z"/></g>
<g><path style="opacity:1" fill="#86648b" d="M 548.5,141.5 C 554.079,144.911 558.413,149.411 561.5,155C 560.089,160.141 556.755,161.808 551.5,160C 550.29,158.961 549.29,157.794 548.5,156.5C 548.5,151.5 548.5,146.5 548.5,141.5 Z"/></g>
<g><path style="opacity:1" fill="#67597b" d="M 617.5,143.5 C 623.489,148.157 629.156,153.157 634.5,158.5C 630.875,157.539 627.708,158.539 625,161.5C 624.667,161.167 624.333,160.833 624,160.5C 623.421,161.928 623.588,163.262 624.5,164.5C 621.573,163.243 619.239,161.243 617.5,158.5C 617.5,153.5 617.5,148.5 617.5,143.5 Z"/></g>
<g><path style="opacity:0.999" fill="#514f6e" d="M 685.5,151.5 C 686.167,151.5 686.5,151.833 686.5,152.5C 686.5,156.833 686.5,161.167 686.5,165.5C 685.127,165.657 683.793,165.49 682.5,165C 679.426,162.151 676.426,159.317 673.5,156.5C 673.414,155.504 673.748,154.671 674.5,154C 677.871,151.284 681.537,150.451 685.5,151.5 Z"/></g>
<g><path style="opacity:0.998" fill="#504d6a" d="M 688.5,154.5 C 690.876,155.512 691.876,157.345 691.5,160C 691.876,162.655 690.876,164.488 688.5,165.5C 688.5,161.833 688.5,158.167 688.5,154.5 Z"/></g>
<g><path style="opacity:1" fill="#8e6890" d="M 498.5,151.5 C 500.655,151.372 502.655,151.872 504.5,153C 508.699,157.534 513.199,161.701 518,165.5C 519.266,174.395 515.766,176.895 507.5,173C 503.966,169.131 500.133,165.631 496,162.5C 493.428,157.889 494.261,154.222 498.5,151.5 Z"/></g>
<g><path style="opacity:1" fill="#5c5271" d="M 634.5,158.5 C 638.721,161.036 642.221,164.369 645,168.5C 644.752,175.094 641.586,177.26 635.5,175C 631.332,171.998 627.665,168.498 624.5,164.5C 623.588,163.262 623.421,161.928 624,160.5C 624.333,160.833 624.667,161.167 625,161.5C 627.708,158.539 630.875,157.539 634.5,158.5 Z"/></g>
<g><path style="opacity:1" fill="#27557c" d="M 686.5,152.5 C 687.5,152.833 688.167,153.5 688.5,154.5C 688.5,158.167 688.5,161.833 688.5,165.5C 687.833,165.5 687.167,165.5 686.5,165.5C 686.5,161.167 686.5,156.833 686.5,152.5 Z"/></g>
<g><path style="opacity:1" fill="#294967" d="M 736.5,190.5 C 732.818,190.591 729.651,191.924 727,194.5C 726.667,194.167 726.333,193.833 726,193.5C 725.53,194.577 725.697,195.577 726.5,196.5C 709.26,187.789 697.26,192.455 690.5,210.5C 688.677,204.06 688.01,197.393 688.5,190.5C 694.77,183.395 702.77,179.729 712.5,179.5C 722.23,179.729 730.23,183.395 736.5,190.5 Z"/></g>
<g><path style="opacity:1" fill="#745b7e" d="M 514.5,194.5 C 495.618,202.237 476.618,209.57 457.5,216.5C 457.5,215.5 457.5,214.5 457.5,213.5C 472.649,195.417 491.649,189.084 514.5,194.5 Z"/></g>
<g><path style="opacity:1" fill="#3b4966" d="M 680.5,194.5 C 674.2,195.198 668.367,197.198 663,200.5C 662.667,200.167 662.333,199.833 662,199.5C 659.246,201.127 656.412,202.627 653.5,204C 657.821,204.499 662.154,204.666 666.5,204.5C 657.666,205.395 648.666,206.062 639.5,206.5C 639.5,209.833 639.5,213.167 639.5,216.5C 638.698,215.048 638.198,213.382 638,211.5C 631.258,213.794 624.758,216.461 618.5,219.5C 618.5,211.5 618.5,203.5 618.5,195.5C 635.651,194.603 652.984,193.603 670.5,192.5C 674.141,192.315 677.474,192.981 680.5,194.5 Z"/></g>
<g><path style="opacity:1" fill="#4a4c6a" d="M 617.5,195.5 C 617.5,197.5 617.5,199.5 617.5,201.5C 609.156,203.273 601.822,206.94 595.5,212.5C 597.214,208.812 596.214,205.979 592.5,204C 589.225,203.018 586.559,203.851 584.5,206.5C 584.5,201.833 584.5,197.167 584.5,192.5C 587.64,191.359 590.973,191.192 594.5,192C 598.403,193.534 601.903,195.7 605,198.5C 609.01,196.773 613.177,195.773 617.5,195.5 Z"/></g>
<g><path style="opacity:1" fill="#2a4867" d="M 686.5,192.5 C 686.666,198.176 686.499,203.843 686,209.5C 680.669,210.684 678.502,214.018 679.5,219.5C 678.689,215.229 678.356,210.895 678.5,206.5C 674.675,204.855 670.675,204.188 666.5,204.5C 662.154,204.666 657.821,204.499 653.5,204C 656.412,202.627 659.246,201.127 662,199.5C 662.333,199.833 662.667,200.167 663,200.5C 668.367,197.198 674.2,195.198 680.5,194.5C 681.822,194.33 682.989,194.663 684,195.5C 684.377,194.058 685.21,193.058 686.5,192.5 Z"/></g>
<g><path style="opacity:1" fill="#4f4c6a" d="M 584.5,192.5 C 584.5,197.167 584.5,201.833 584.5,206.5C 584.5,207.833 584.5,209.167 584.5,210.5C 584.5,211.833 584.5,213.167 584.5,214.5C 580.936,214.611 578.603,216.278 577.5,219.5C 573.111,215.49 571.611,210.49 573,204.5C 574.369,198.066 578.202,194.066 584.5,192.5 Z"/></g>
<g><path style="opacity:1" fill="#625373" d="M 527.5,199.5 C 531.542,200.851 534.875,203.185 537.5,206.5C 532.758,207.687 528.091,209.187 523.5,211C 505.34,219.192 487.673,227.192 470.5,235C 466.146,236.514 461.812,238.014 457.5,239.5C 457.5,235.167 457.5,230.833 457.5,226.5C 465.942,223.064 474.109,219.73 482,216.5C 482.333,216.833 482.667,217.167 483,217.5C 490.671,213.061 498.671,210.061 507,208.5C 507.324,206.431 508.158,206.098 509.5,207.5C 511.385,206.391 513.385,205.557 515.5,205C 513.699,204.683 513.366,204.016 514.5,203C 518.884,201.892 523.218,200.725 527.5,199.5 Z"/></g>
<g><path style="opacity:1" fill="#6b5778" d="M 514.5,194.5 C 519.43,194.807 523.763,196.473 527.5,199.5C 523.218,200.725 518.884,201.892 514.5,203C 513.366,204.016 513.699,204.683 515.5,205C 513.385,205.557 511.385,206.391 509.5,207.5C 508.158,206.098 507.324,206.431 507,208.5C 498.671,210.061 490.671,213.061 483,217.5C 482.667,217.167 482.333,216.833 482,216.5C 474.109,219.73 465.942,223.064 457.5,226.5C 457.5,223.167 457.5,219.833 457.5,216.5C 476.618,209.57 495.618,202.237 514.5,194.5 Z"/></g>
<g><path style="opacity:1" fill="#584f6d" d="M 537.5,206.5 C 541.145,208.145 543.812,210.812 545.5,214.5C 545.5,215.167 545.5,215.833 545.5,216.5C 535.306,221.161 524.973,225.661 514.5,230C 515.056,230.383 515.389,230.883 515.5,231.5C 504.841,224.379 494.675,225.045 485,233.5C 480.427,239.39 478.593,246.057 479.5,253.5C 478.834,250.972 478.168,248.306 477.5,245.5C 471.246,249.029 464.58,251.362 457.5,252.5C 457.5,248.167 457.5,243.833 457.5,239.5C 461.812,238.014 466.146,236.514 470.5,235C 487.673,227.192 505.34,219.192 523.5,211C 528.091,209.187 532.758,207.687 537.5,206.5 Z"/></g>
<g><path style="opacity:1" fill="#3e4966" d="M 617.5,201.5 C 617.5,205.5 617.5,209.5 617.5,213.5C 608.617,217.152 600.117,220.819 592,224.5C 591.667,224.167 591.333,223.833 591,223.5C 589.903,225.053 588.57,226.386 587,227.5C 586.617,226.944 586.117,226.611 585.5,226.5C 585.5,221.5 585.5,216.5 585.5,211.5C 588.49,213.99 591.323,216.657 594,219.5C 594.29,217.08 594.79,214.746 595.5,212.5C 601.822,206.94 609.156,203.273 617.5,201.5 Z"/></g>
<g><path style="opacity:1" fill="#334765" d="M 617.5,213.5 C 617.5,218.167 617.5,222.833 617.5,227.5C 610.695,229.435 604.029,231.768 597.5,234.5C 596.676,237.785 596.176,241.118 596,244.5C 595.283,243.956 594.783,243.289 594.5,242.5C 596.389,238.308 595.223,234.975 591,232.5C 589.764,233.399 588.93,234.566 588.5,236C 590.018,237.351 591.351,238.851 592.5,240.5C 590.906,240.08 589.406,239.414 588,238.5C 587.228,238.645 586.561,238.978 586,239.5C 585.501,235.179 585.334,230.846 585.5,226.5C 586.117,226.611 586.617,226.944 587,227.5C 588.57,226.386 589.903,225.053 591,223.5C 591.333,223.833 591.667,224.167 592,224.5C 600.117,220.819 608.617,217.152 617.5,213.5 Z"/></g>
<g><path style="opacity:1" fill="#274765" d="M 639.5,216.5 C 639.423,220.215 639.756,223.881 640.5,227.5C 643.167,227.5 645.833,227.5 648.5,227.5C 644.839,228.891 641.172,228.558 637.5,226.5C 631.495,228.836 625.495,231.17 619.5,233.5C 618.507,228.88 618.173,224.214 618.5,219.5C 624.758,216.461 631.258,213.794 638,211.5C 638.198,213.382 638.698,215.048 639.5,216.5 Z"/></g>
<g><path style="opacity:1" fill="#374763" d="M 584.5,214.5 C 584.5,225.833 584.5,237.167 584.5,248.5C 582.114,247.627 580.114,246.127 578.5,244C 577.167,243.833 575.833,243.667 574.5,243.5C 568.865,244.495 563.198,245.162 557.5,245.5C 557.81,248.713 557.477,251.713 556.5,254.5C 556.719,253.325 556.386,252.325 555.5,251.5C 553.055,252.312 550.722,253.312 548.5,254.5C 548.5,242.5 548.5,230.5 548.5,218.5C 551.438,222.715 553.605,227.382 555,232.5C 562.25,233.124 569.416,232.29 576.5,230C 578.351,228.316 580.018,226.483 581.5,224.5C 580.143,222.814 578.81,221.148 577.5,219.5C 578.603,216.278 580.936,214.611 584.5,214.5 Z"/></g>
<g><path style="opacity:1" fill="#014a6b" d="M 688.5,190.5 C 688.01,197.393 688.677,204.06 690.5,210.5C 690.766,225.097 698.099,233.43 712.5,235.5C 724.145,234.771 731.311,228.771 734,217.5C 734.884,209.273 732.384,202.273 726.5,196.5C 725.697,195.577 725.53,194.577 726,193.5C 726.333,193.833 726.667,194.167 727,194.5C 729.651,191.924 732.818,190.591 736.5,190.5C 747.947,203.295 749.447,217.295 741,232.5C 729.961,246.806 715.794,250.973 698.5,245C 693.367,242.346 688.867,238.846 685,234.5C 682.039,235.817 680.872,238.151 681.5,241.5C 682.29,248.479 682.624,255.479 682.5,262.5C 681.837,260.958 681.17,259.291 680.5,257.5C 679.667,258.5 678.833,259.5 678,260.5C 675.871,259.137 675.371,259.471 676.5,261.5C 674.64,262.325 672.974,263.325 671.5,264.5C 670.518,261.038 670.185,257.371 670.5,253.5C 667.421,253.26 664.421,253.593 661.5,254.5C 660.504,260.463 660.171,266.463 660.5,272.5C 659.883,272.389 659.383,272.056 659,271.5C 656.858,273.827 654.358,275.493 651.5,276.5C 651.5,277.5 651.5,278.5 651.5,279.5C 650.207,278.158 649.374,276.491 649,274.5C 648.5,267.508 648.334,260.508 648.5,253.5C 648.33,252.178 648.663,251.011 649.5,250C 651.392,249.027 653.392,248.36 655.5,248C 658.186,246.424 660.52,244.591 662.5,242.5C 664.607,241.532 666.941,241.198 669.5,241.5C 669.334,237.154 669.501,232.821 670,228.5C 672.424,226.348 675.257,225.015 678.5,224.5C 679.452,222.955 679.785,221.288 679.5,219.5C 678.502,214.018 680.669,210.684 686,209.5C 686.499,203.843 686.666,198.176 686.5,192.5C 686.833,191.5 687.5,190.833 688.5,190.5 Z M 726.5,196.5 C 732.384,202.273 734.884,209.273 734,217.5C 731.311,228.771 724.145,234.771 712.5,235.5C 698.099,233.43 690.766,225.097 690.5,210.5C 697.26,192.455 709.26,187.789 726.5,196.5 Z"/></g>
<g><path style="opacity:1" fill="#00496a" d="M 717.5,215.5 C 726.023,215.061 728.356,218.561 724.5,226C 720.543,228.385 717.376,227.552 715,223.5C 714.388,220.389 715.221,217.723 717.5,215.5 Z"/></g>
<g><path style="opacity:1" fill="#3f4764" d="M 545.5,230.5 C 545.5,235.167 545.5,239.833 545.5,244.5C 539.418,247.289 533.251,249.956 527,252.5C 526.667,252.167 526.333,251.833 526,251.5C 524.87,253.933 523.704,256.266 522.5,258.5C 521.209,258.737 520.209,258.404 519.5,257.5C 515.965,258.052 512.632,259.218 509.5,261C 508.402,261.77 508.402,262.603 509.5,263.5C 505.229,260.899 501.563,257.566 498.5,253.5C 497.438,252.425 497.438,251.425 498.5,250.5C 501.079,249.294 503.579,247.961 506,246.5C 506.333,246.833 506.667,247.167 507,247.5C 519.935,241.947 532.768,236.28 545.5,230.5 Z M 519.5,257.5 C 518.375,255.871 517.041,254.371 515.5,253C 517.74,252.023 520.073,251.523 522.5,251.5C 522.614,254.216 521.614,256.216 519.5,257.5 Z"/></g>
<g><path style="opacity:1" fill="#78597a" d="M 405.5,229.5 C 405.5,232.167 405.5,234.833 405.5,237.5C 402.941,234.91 402.941,232.243 405.5,229.5 Z"/></g>
<g><path style="opacity:1" fill="#184e73" d="M 545.5,214.5 C 546.974,215.436 547.974,216.77 548.5,218.5C 548.5,230.5 548.5,242.5 548.5,254.5C 548.167,254.5 547.833,254.5 547.5,254.5C 545.598,251.663 544.931,248.329 545.5,244.5C 545.5,239.833 545.5,235.167 545.5,230.5C 545.5,225.833 545.5,221.167 545.5,216.5C 545.5,215.833 545.5,215.167 545.5,214.5 Z"/></g>
<g><path style="opacity:0.998" fill="#024768" d="M 617.5,195.5 C 617.833,195.5 618.167,195.5 618.5,195.5C 618.5,203.5 618.5,211.5 618.5,219.5C 618.173,224.214 618.507,228.88 619.5,233.5C 625.495,231.17 631.495,228.836 637.5,226.5C 641.172,228.558 644.839,228.891 648.5,227.5C 652.007,226.994 655.174,227.66 658,229.5C 659.29,233.73 659.79,238.064 659.5,242.5C 660.5,242.5 661.5,242.5 662.5,242.5C 660.52,244.591 658.186,246.424 655.5,248C 653.392,248.36 651.392,249.027 649.5,250C 648.663,251.011 648.33,252.178 648.5,253.5C 647.514,249.03 647.181,244.363 647.5,239.5C 643.563,239.207 639.73,239.54 636,240.5C 636.103,251.494 636.603,262.494 637.5,273.5C 637.493,275.369 637.16,277.036 636.5,278.5C 636.892,275.278 636.392,272.278 635,269.5C 634.5,270.667 633.667,271.5 632.5,272C 632.833,272.333 633.167,272.667 633.5,273C 632.007,274.368 630.507,274.535 629,273.5C 627.961,274.71 626.794,275.71 625.5,276.5C 625,269.506 624.5,262.506 624,255.5C 618.928,256.471 613.762,256.805 608.5,256.5C 608.928,262.176 609.095,267.843 609,273.5C 597.372,287.463 585.372,301.13 573,314.5C 569.456,319.318 569.956,323.651 574.5,327.5C 572.418,327.624 570.918,328.624 570,330.5C 568.434,329.939 567.101,330.606 566,332.5C 565.7,334.066 566.2,335.399 567.5,336.5C 558.827,329.956 556.494,321.456 560.5,311C 560.257,310.098 559.923,309.265 559.5,308.5C 560.347,307.034 561.68,306.2 563.5,306C 562.346,305.086 562.513,304.253 564,303.5C 564.333,303.833 564.667,304.167 565,304.5C 566.698,303.259 568.198,301.926 569.5,300.5C 578.659,290.198 587.826,279.865 597,269.5C 596.914,265.813 596.414,262.146 595.5,258.5C 594.438,257.425 594.438,256.425 595.5,255.5C 602.646,252.266 609.812,249.266 617,246.5C 617.5,240.175 617.666,233.842 617.5,227.5C 617.5,222.833 617.5,218.167 617.5,213.5C 617.5,209.5 617.5,205.5 617.5,201.5C 617.5,199.5 617.5,197.5 617.5,195.5 Z"/></g>
<g><path style="opacity:1" fill="#4b6593" d="M 407.5,228.5 C 407.5,232.167 407.5,235.833 407.5,239.5C 406.5,239.167 405.833,238.5 405.5,237.5C 405.5,234.833 405.5,232.167 405.5,229.5C 405.842,228.662 406.508,228.328 407.5,228.5 Z"/></g>
<g><path style="opacity:1" fill="#705879" d="M 425.5,240.5 C 424.85,240.804 424.183,241.137 423.5,241.5C 423.167,240.833 422.833,240.167 422.5,239.5C 419.49,240.836 416.49,242.169 413.5,243.5C 414.193,244.518 414.859,245.518 415.5,246.5C 412.236,244.906 409.569,242.573 407.5,239.5C 407.5,235.833 407.5,232.167 407.5,228.5C 408.946,227.387 410.613,227.22 412.5,228C 416.729,232.398 421.062,236.564 425.5,240.5 Z"/></g>
<g><path style="opacity:1" fill="#635272" d="M 455.5,216.5 C 455.5,224.833 455.5,233.167 455.5,241.5C 452.037,242.099 448.704,243.099 445.5,244.5C 445.507,233.85 448.84,224.516 455.5,216.5 Z"/></g>
<g><path style="opacity:0.999" fill="#4a4a67" d="M 545.5,216.5 C 545.5,221.167 545.5,225.833 545.5,230.5C 532.768,236.28 519.935,241.947 507,247.5C 506.667,247.167 506.333,246.833 506,246.5C 503.579,247.961 501.079,249.294 498.5,250.5C 497.438,251.425 497.438,252.425 498.5,253.5C 496.265,252.714 495.265,251.048 495.5,248.5C 495.437,246.519 496.104,244.852 497.5,243.5C 505.237,242.11 512.904,240.443 520.5,238.5C 518.578,236.313 516.912,233.98 515.5,231.5C 515.389,230.883 515.056,230.383 514.5,230C 524.973,225.661 535.306,221.161 545.5,216.5 Z"/></g>
<g><path style="opacity:1" fill="#174765" d="M 584.5,210.5 C 585.167,210.5 585.5,210.833 585.5,211.5C 585.5,216.5 585.5,221.5 585.5,226.5C 585.334,230.846 585.501,235.179 586,239.5C 586.561,238.978 587.228,238.645 588,238.5C 589.406,239.414 590.906,240.08 592.5,240.5C 593.5,240.833 594.167,241.5 594.5,242.5C 594.783,243.289 595.283,243.956 596,244.5C 596.176,241.118 596.676,237.785 597.5,234.5C 604.029,231.768 610.695,229.435 617.5,227.5C 617.666,233.842 617.5,240.175 617,246.5C 609.812,249.266 602.646,252.266 595.5,255.5C 594.438,256.425 594.438,257.425 595.5,258.5C 591.229,255.899 587.563,252.566 584.5,248.5C 584.5,237.167 584.5,225.833 584.5,214.5C 584.5,213.167 584.5,211.833 584.5,210.5 Z M 594.5,242.5 C 594.167,241.5 593.5,240.833 592.5,240.5C 591.351,238.851 590.018,237.351 588.5,236C 588.93,234.566 589.764,233.399 591,232.5C 595.223,234.975 596.389,238.308 594.5,242.5 Z"/></g>
<g><path style="opacity:1" fill="#375882" d="M 457.5,213.5 C 457.5,214.5 457.5,215.5 457.5,216.5C 457.5,219.833 457.5,223.167 457.5,226.5C 457.5,230.833 457.5,235.167 457.5,239.5C 457.5,243.833 457.5,248.167 457.5,252.5C 457.5,253.5 457.5,254.5 457.5,255.5C 456.833,255.833 456.167,256.167 455.5,256.5C 455.5,251.5 455.5,246.5 455.5,241.5C 455.5,233.167 455.5,224.833 455.5,216.5C 455.427,214.973 456.094,213.973 457.5,213.5 Z"/></g>
<g><path style="opacity:1" fill="#5e4f6d" d="M 425.5,240.5 C 432.157,245.825 438.49,251.491 444.5,257.5C 440.473,257.628 436.473,258.794 432.5,261C 433.71,262.039 434.71,263.206 435.5,264.5C 428.447,258.966 421.78,252.966 415.5,246.5C 414.859,245.518 414.193,244.518 413.5,243.5C 416.49,242.169 419.49,240.836 422.5,239.5C 422.833,240.167 423.167,240.833 423.5,241.5C 424.183,241.137 424.85,240.804 425.5,240.5 Z"/></g>
<g><path style="opacity:1" fill="#324561" d="M 545.5,244.5 C 544.931,248.329 545.598,251.663 547.5,254.5C 542.534,256.399 537.7,258.732 533,261.5C 532.667,261.167 532.333,260.833 532,260.5C 531.751,261.624 531.251,262.624 530.5,263.5C 515.763,270.382 500.43,276.382 484.5,281.5C 484.5,275.5 484.5,269.5 484.5,263.5C 493.052,271.209 502.385,272.376 512.5,267C 510.937,266.241 509.937,265.074 509.5,263.5C 508.402,262.603 508.402,261.77 509.5,261C 512.632,259.218 515.965,258.052 519.5,257.5C 520.209,258.404 521.209,258.737 522.5,258.5C 523.704,256.266 524.87,253.933 526,251.5C 526.333,251.833 526.667,252.167 527,252.5C 533.251,249.956 539.418,247.289 545.5,244.5 Z"/></g>
<g><path style="opacity:1" fill="#284461" d="M 556.5,254.5 C 556.795,256.735 556.461,258.735 555.5,260.5C 555.649,259.448 555.483,258.448 555,257.5C 553.345,257.802 552.012,259.136 551,261.5C 550.586,261.043 550.086,260.709 549.5,260.5C 546.956,262.629 544.122,264.296 541,265.5C 522.07,272.097 503.237,279.43 484.5,287.5C 484.5,285.5 484.5,283.5 484.5,281.5C 500.43,276.382 515.763,270.382 530.5,263.5C 531.251,262.624 531.751,261.624 532,260.5C 532.333,260.833 532.667,261.167 533,261.5C 537.7,258.732 542.534,256.399 547.5,254.5C 547.833,254.5 548.167,254.5 548.5,254.5C 550.722,253.312 553.055,252.312 555.5,251.5C 556.386,252.325 556.719,253.325 556.5,254.5 Z"/></g>
<g><path style="opacity:1" fill="#4a4966" d="M 479.5,253.5 C 480.363,255.421 481.029,257.421 481.5,259.5C 473.598,261.414 466.098,264.414 459,268.5C 458.617,267.944 458.117,267.611 457.5,267.5C 457.5,263.5 457.5,259.5 457.5,255.5C 457.5,254.5 457.5,253.5 457.5,252.5C 464.58,251.362 471.246,249.029 477.5,245.5C 478.168,248.306 478.834,250.972 479.5,253.5 Z"/></g>
<g><path style="opacity:1" fill="#524b69" d="M 455.5,241.5 C 455.5,246.5 455.5,251.5 455.5,256.5C 455.5,258.5 455.5,260.5 455.5,262.5C 452.228,263.758 448.894,264.925 445.5,266C 443.416,266.697 441.749,267.864 440.5,269.5C 438.5,268.167 436.833,266.5 435.5,264.5C 434.71,263.206 433.71,262.039 432.5,261C 436.473,258.794 440.473,257.628 444.5,257.5C 444.474,253.186 444.807,248.852 445.5,244.5C 448.704,243.099 452.037,242.099 455.5,241.5 Z"/></g>
<g><path style="opacity:1" fill="#464763" d="M 455.5,262.5 C 455.5,269.5 455.5,276.5 455.5,283.5C 450.474,278.805 445.474,274.139 440.5,269.5C 441.749,267.864 443.416,266.697 445.5,266C 448.894,264.925 452.228,263.758 455.5,262.5 Z"/></g>
<g><path style="opacity:1" fill="#3b4662" d="M 481.5,259.5 C 481.5,265.833 481.5,272.167 481.5,278.5C 474.713,281.06 468.047,283.894 461.5,287C 462.71,288.039 463.71,289.206 464.5,290.5C 461.573,289.243 459.239,287.243 457.5,284.5C 457.5,278.833 457.5,273.167 457.5,267.5C 458.117,267.611 458.617,267.944 459,268.5C 466.098,264.414 473.598,261.414 481.5,259.5 Z"/></g>
<g><path style="opacity:0.999" fill="#004d71" d="M 682.5,262.5 C 687.295,271.766 691.295,281.433 694.5,291.5C 693.504,291.586 692.671,291.252 692,290.5C 691.667,291.5 691.333,292.5 691,293.5C 690.667,293.167 690.333,292.833 690,292.5C 688.764,294.538 686.931,295.705 684.5,296C 683.213,297.41 682.046,298.91 681,300.5C 680.667,300.167 680.333,299.833 680,299.5C 675.847,303.375 670.68,306.542 664.5,309C 663.167,309.667 663.167,310.333 664.5,311C 663.216,311.684 662.049,311.517 661,310.5C 659.954,312.09 658.787,313.59 657.5,315C 654.565,315.476 651.898,317.143 649.5,320C 645.551,320.807 645.551,321.307 649.5,321.5C 633.979,322.575 618.312,323.741 602.5,325C 598.5,329 594.5,333 590.5,337C 582.586,341.798 574.92,341.631 567.5,336.5C 566.2,335.399 565.7,334.066 566,332.5C 567.101,330.606 568.434,329.939 570,330.5C 570.918,328.624 572.418,327.624 574.5,327.5C 577.604,328.864 580.604,328.698 583.5,327C 595.667,314.167 607.833,301.333 620,288.5C 622.701,284.773 624.535,280.773 625.5,276.5C 626.794,275.71 627.961,274.71 629,273.5C 630.507,274.535 632.007,274.368 633.5,273C 633.167,272.667 632.833,272.333 632.5,272C 633.667,271.5 634.5,270.667 635,269.5C 636.392,272.278 636.892,275.278 636.5,278.5C 643.773,286.77 651.773,294.436 660.5,301.5C 660.833,301.333 661.167,301.167 661.5,301C 657.875,293.954 654.542,286.787 651.5,279.5C 651.5,278.5 651.5,277.5 651.5,276.5C 654.358,275.493 656.858,273.827 659,271.5C 659.383,272.056 659.883,272.389 660.5,272.5C 664.497,279.16 667.997,286.16 671,293.5C 673.318,289.088 676.818,287.588 681.5,289C 677.673,281.015 674.34,272.849 671.5,264.5C 672.974,263.325 674.64,262.325 676.5,261.5C 675.371,259.471 675.871,259.137 678,260.5C 678.833,259.5 679.667,258.5 680.5,257.5C 681.17,259.291 681.837,260.958 682.5,262.5 Z M 631.5,292.5 C 637.961,297.791 644.295,303.291 650.5,309C 638.873,310.516 627.206,311.183 615.5,311C 621.043,304.961 626.376,298.795 631.5,292.5 Z"/></g>
<g><path style="opacity:1" fill="#1b4d70" d="M 457.5,255.5 C 457.5,259.5 457.5,263.5 457.5,267.5C 457.5,273.167 457.5,278.833 457.5,284.5C 456.833,284.167 456.167,283.833 455.5,283.5C 455.5,276.5 455.5,269.5 455.5,262.5C 455.5,260.5 455.5,258.5 455.5,256.5C 456.167,256.167 456.833,255.833 457.5,255.5 Z"/></g>
<g><path style="opacity:1" fill="#204461" d="M 555.5,260.5 C 555.277,264.162 554.277,267.495 552.5,270.5C 552.649,269.448 552.483,268.448 552,267.5C 550.68,267.799 549.18,267.966 547.5,268C 537.972,273.499 527.472,278.999 516,284.5C 514.667,284.5 513.333,284.5 512,284.5C 503.173,289.053 494.006,292.719 484.5,295.5C 484.5,292.833 484.5,290.167 484.5,287.5C 503.237,279.43 522.07,272.097 541,265.5C 544.122,264.296 546.956,262.629 549.5,260.5C 550.086,260.709 550.586,261.043 551,261.5C 552.012,259.136 553.345,257.802 555,257.5C 555.483,258.448 555.649,259.448 555.5,260.5 Z"/></g>
<g><path style="opacity:0.998" fill="#054563" d="M 481.5,259.5 C 482.974,260.436 483.974,261.77 484.5,263.5C 484.5,269.5 484.5,275.5 484.5,281.5C 484.5,283.5 484.5,285.5 484.5,287.5C 484.5,290.167 484.5,292.833 484.5,295.5C 494.006,292.719 503.173,289.053 512,284.5C 513.333,284.5 514.667,284.5 516,284.5C 527.472,278.999 537.972,273.499 547.5,268C 549.18,267.966 550.68,267.799 552,267.5C 552.483,268.448 552.649,269.448 552.5,270.5C 551.409,274.515 549.409,278.015 546.5,281C 552.358,286.102 558.024,291.435 563.5,297C 565.405,298.421 567.405,299.588 569.5,300.5C 568.198,301.926 566.698,303.259 565,304.5C 564.667,304.167 564.333,303.833 564,303.5C 562.513,304.253 562.346,305.086 563.5,306C 561.68,306.2 560.347,307.034 559.5,308.5C 552.004,303.226 545.004,297.226 538.5,290.5C 521.516,304.296 502.516,307.963 481.5,301.5C 481.5,293.833 481.5,286.167 481.5,278.5C 481.5,272.167 481.5,265.833 481.5,259.5 Z"/></g>
<g><path style="opacity:0.999" fill="#294360" d="M 481.5,278.5 C 481.5,286.167 481.5,293.833 481.5,301.5C 474.945,299.065 469.278,295.398 464.5,290.5C 463.71,289.206 462.71,288.039 461.5,287C 468.047,283.894 474.713,281.06 481.5,278.5 Z"/></g>
<g><path style="opacity:1" fill="#005278" d="M 694.5,291.5 C 695.565,305.285 688.898,312.452 674.5,313C 672.11,317.503 670.11,322.169 668.5,327C 674.946,330.211 680.612,334.378 685.5,339.5C 683.547,338.538 681.714,338.205 680,338.5C 676.257,341.621 672.424,344.621 668.5,347.5C 667.575,348.641 666.741,348.641 666,347.5C 663.781,349.72 661.281,351.553 658.5,353C 657.167,353.667 657.167,354.333 658.5,355C 657.451,355.492 656.451,355.326 655.5,354.5C 654.045,357.756 651.045,359.423 646.5,359.5C 635.4,357.704 628.234,362.704 625,374.5C 624.503,377.146 624.336,379.813 624.5,382.5C 623.686,380.369 623.186,378.036 623,375.5C 621.667,377.167 620.333,378.833 619,380.5C 617.434,379.939 616.101,380.606 615,382.5C 614.667,382.167 614.333,381.833 614,381.5C 611.86,382.728 610.193,384.395 609,386.5C 608.667,386.167 608.333,385.833 608,385.5C 607.167,386.5 606.333,387.5 605.5,388.5C 603.14,387.828 601.14,388.661 599.5,391C 599.833,391.333 600.167,391.667 600.5,392C 599.069,392.465 597.903,393.299 597,394.5C 595.984,393.366 595.317,393.699 595,395.5C 594.282,394.549 593.449,394.383 592.5,395C 593.833,395.667 593.833,396.333 592.5,397C 590.377,397.815 588.377,398.815 586.5,400C 587.381,400.708 588.047,401.542 588.5,402.5C 580.924,396.866 573.924,390.533 567.5,383.5C 566.697,382.577 566.53,381.577 567,380.5C 569.893,378.926 572.726,377.259 575.5,375.5C 580.442,379.103 585.108,383.103 589.5,387.5C 587.821,358.007 600.488,337.507 627.5,326C 637.083,323.452 646.75,322.952 656.5,324.5C 657.386,323.675 657.719,322.675 657.5,321.5C 654.833,321.5 652.167,321.5 649.5,321.5C 645.551,321.307 645.551,320.807 649.5,320C 651.898,317.143 654.565,315.476 657.5,315C 658.787,313.59 659.954,312.09 661,310.5C 662.049,311.517 663.216,311.684 664.5,311C 663.167,310.333 663.167,309.667 664.5,309C 670.68,306.542 675.847,303.375 680,299.5C 680.333,299.833 680.667,300.167 681,300.5C 682.046,298.91 683.213,297.41 684.5,296C 686.931,295.705 688.764,294.538 690,292.5C 690.333,292.833 690.667,293.167 691,293.5C 691.333,292.5 691.667,291.5 692,290.5C 692.671,291.252 693.504,291.586 694.5,291.5 Z"/></g>
<g><path style="opacity:1" fill="#00557d" d="M 685.5,339.5 C 691.495,344.163 695.495,350.163 697.5,357.5C 695.821,357.892 694.154,358.392 692.5,359C 693.654,359.914 693.487,360.747 692,361.5C 691.586,361.043 691.086,360.709 690.5,360.5C 688.879,362.423 687.046,364.089 685,365.5C 684.667,364.833 684.333,364.167 684,363.5C 681.752,365.816 679.419,368.15 677,370.5C 676.667,370.167 676.333,369.833 676,369.5C 674.418,371.711 672.251,373.045 669.5,373.5C 668.833,376.977 668.166,380.311 667.5,383.5C 668.783,374.337 665.783,367.003 658.5,361.5C 655.85,368.423 653.35,375.423 651,382.5C 647.667,386.5 644.333,386.5 641,382.5C 640.896,374.324 642.729,366.658 646.5,359.5C 651.045,359.423 654.045,357.756 655.5,354.5C 656.451,355.326 657.451,355.492 658.5,355C 657.167,354.333 657.167,353.667 658.5,353C 661.281,351.553 663.781,349.72 666,347.5C 666.741,348.641 667.575,348.641 668.5,347.5C 672.424,344.621 676.257,341.621 680,338.5C 681.714,338.205 683.547,338.538 685.5,339.5 Z"/></g>
<g><path style="opacity:1" fill="#38415b" d="M 321.5,347.5 C 321.5,347.833 321.5,348.167 321.5,348.5C 320.85,348.196 320.183,347.863 319.5,347.5C 308.54,352.154 297.54,356.488 286.5,360.5C 286.817,364.702 286.483,368.702 285.5,372.5C 285.5,362.167 285.5,351.833 285.5,341.5C 296.172,341.333 306.839,341.5 317.5,342C 318.965,343.774 320.298,345.608 321.5,347.5 Z"/></g>
<g><path style="opacity:0.997" fill="#004361" d="M 438.5,341.5 C 438.703,343.044 439.37,344.378 440.5,345.5C 437.748,348.422 434.581,350.755 431,352.5C 430.667,352.167 430.333,351.833 430,351.5C 429.097,352.701 427.931,353.535 426.5,354C 426.833,354.333 427.167,354.667 427.5,355C 420.988,357.457 414.988,361.291 409.5,366.5C 408.914,366.291 408.414,365.957 408,365.5C 407,367.167 406,368.833 405,370.5C 404.667,370.167 404.333,369.833 404,369.5C 403.517,370.448 403.351,371.448 403.5,372.5C 401.881,356.236 409.214,346.07 425.5,342C 429.821,341.501 434.154,341.334 438.5,341.5 Z"/></g>
<g><path style="opacity:0.999" fill="#004667" d="M 438.5,341.5 C 454.833,341.5 471.167,341.5 487.5,341.5C 487.5,349.5 487.5,357.5 487.5,365.5C 470.83,365.333 454.163,365.5 437.5,366C 434.552,367.01 433.886,368.843 435.5,371.5C 438.985,373.094 442.652,373.76 446.5,373.5C 445.312,374.364 444.145,375.364 443,376.5C 442.667,376.167 442.333,375.833 442,375.5C 440.245,378.044 438.245,380.377 436,382.5C 434.636,381.742 433.469,382.242 432.5,384C 430.608,384.973 428.608,385.64 426.5,386C 425.237,388.386 423.403,390.219 421,391.5C 420.667,391.167 420.333,390.833 420,390.5C 418.812,391.563 418.312,392.897 418.5,394.5C 408.586,390.713 403.586,383.379 403.5,372.5C 403.351,371.448 403.517,370.448 404,369.5C 404.333,369.833 404.667,370.167 405,370.5C 406,368.833 407,367.167 408,365.5C 408.414,365.957 408.914,366.291 409.5,366.5C 414.988,361.291 420.988,357.457 427.5,355C 427.167,354.667 426.833,354.333 426.5,354C 427.931,353.535 429.097,352.701 430,351.5C 430.333,351.833 430.667,352.167 431,352.5C 434.581,350.755 437.748,348.422 440.5,345.5C 439.37,344.378 438.703,343.044 438.5,341.5 Z"/></g>
<g><path style="opacity:1" fill="#004a6d" d="M 551.5,341.5 C 549.981,342.41 548.315,343.243 546.5,344C 545.809,345.067 545.309,346.234 545,347.5C 543.442,346.655 542.442,347.321 542,349.5C 541.549,347.071 540.715,346.904 539.5,349C 539.833,349.333 540.167,349.667 540.5,350C 536.798,349.71 534.298,351.21 533,354.5C 532.667,354.167 532.333,353.833 532,353.5C 530.248,355.774 528.248,357.774 526,359.5C 525.667,359.167 525.333,358.833 525,358.5C 523.565,360.211 521.731,361.378 519.5,362C 518.167,362.667 518.167,363.333 519.5,364C 522.482,364.498 525.482,364.665 528.5,364.5C 528.5,375.167 528.5,385.833 528.5,396.5C 528.5,407.5 528.5,418.5 528.5,429.5C 527.503,408.34 527.169,387.007 527.5,365.5C 517.833,365.5 508.167,365.5 498.5,365.5C 498.5,357.5 498.5,349.5 498.5,341.5C 516.167,341.5 533.833,341.5 551.5,341.5 Z"/></g>
<g><path style="opacity:0.999" fill="#004e73" d="M 551.5,341.5 C 563.833,341.5 576.167,341.5 588.5,341.5C 588.5,349.5 588.5,357.5 588.5,365.5C 580.826,365.334 573.159,365.5 565.5,366C 569.334,368.668 572.667,371.835 575.5,375.5C 572.726,377.259 569.893,378.926 567,380.5C 566.53,381.577 566.697,382.577 567.5,383.5C 564.269,381.78 561.436,379.447 559,376.5C 558.5,384.159 558.334,391.826 558.5,399.5C 557.671,392.679 557.171,385.679 557,378.5C 550.498,382.873 543.665,387.706 536.5,393C 534.129,394.879 531.462,396.045 528.5,396.5C 528.5,385.833 528.5,375.167 528.5,364.5C 525.482,364.665 522.482,364.498 519.5,364C 518.167,363.333 518.167,362.667 519.5,362C 521.731,361.378 523.565,360.211 525,358.5C 525.333,358.833 525.667,359.167 526,359.5C 528.248,357.774 530.248,355.774 532,353.5C 532.333,353.833 532.667,354.167 533,354.5C 534.298,351.21 536.798,349.71 540.5,350C 540.167,349.667 539.833,349.333 539.5,349C 540.715,346.904 541.549,347.071 542,349.5C 542.442,347.321 543.442,346.655 545,347.5C 545.309,346.234 545.809,345.067 546.5,344C 548.315,343.243 549.981,342.41 551.5,341.5 Z"/></g>
<g><path style="opacity:1" fill="#005880" d="M 766.5,341.5 C 765.56,343.572 764.06,345.239 762,346.5C 761.667,346.167 761.333,345.833 761,345.5C 758.942,346.109 758.109,347.109 758.5,348.5C 756.786,347.391 756.119,348.058 756.5,350.5C 746.991,354.174 738.491,359.507 731,366.5C 729.869,365.396 729.035,365.729 728.5,367.5C 727.311,368.429 725.978,368.762 724.5,368.5C 724.5,369.5 724.5,370.5 724.5,371.5C 722.019,371.323 720.186,372.323 719,374.5C 718.667,374.167 718.333,373.833 718,373.5C 716.8,375.412 715.133,376.745 713,377.5C 712.5,394.83 712.333,412.163 712.5,429.5C 711.502,400.338 711.169,371.005 711.5,341.5C 729.833,341.5 748.167,341.5 766.5,341.5 Z"/></g>
<g><path style="opacity:1" fill="#005b86" d="M 766.5,341.5 C 781.75,338.632 793.917,343.298 803,355.5C 805.547,362.157 806.047,368.824 804.5,375.5C 804.666,371.486 804.499,367.486 804,363.5C 803.167,364.5 802.333,365.5 801.5,366.5C 800.549,365.674 799.549,365.508 798.5,366C 796.5,367.333 794.833,369 793.5,371C 792.551,371.617 791.718,371.451 791,370.5C 790.626,371.416 790.126,372.25 789.5,373C 787.671,373.273 786.171,374.107 785,375.5C 784.667,375.167 784.333,374.833 784,374.5C 782.991,376.025 782.491,377.692 782.5,379.5C 780.097,379.393 778.264,380.393 777,382.5C 775.984,381.366 775.317,381.699 775,383.5C 774.667,383.167 774.333,382.833 774,382.5C 771.086,385.371 767.752,387.704 764,389.5C 763.667,389.167 763.333,388.833 763,388.5C 761.694,391.464 759.694,393.797 757,395.5C 755.927,394.72 754.76,394.887 753.5,396C 755.119,396.236 756.119,397.069 756.5,398.5C 751.93,397.559 747.263,397.226 742.5,397.5C 742.5,408.167 742.5,418.833 742.5,429.5C 732.5,429.5 722.5,429.5 712.5,429.5C 712.333,412.163 712.5,394.83 713,377.5C 715.133,376.745 716.8,375.412 718,373.5C 718.333,373.833 718.667,374.167 719,374.5C 720.186,372.323 722.019,371.323 724.5,371.5C 724.5,370.5 724.5,369.5 724.5,368.5C 725.978,368.762 727.311,368.429 728.5,367.5C 729.035,365.729 729.869,365.396 731,366.5C 738.491,359.507 746.991,354.174 756.5,350.5C 756.119,348.058 756.786,347.391 758.5,348.5C 758.109,347.109 758.942,346.109 761,345.5C 761.333,345.833 761.667,346.167 762,346.5C 764.06,345.239 765.56,343.572 766.5,341.5 Z M 742.5,365.5 C 752.839,365.334 763.172,365.5 773.5,366C 776.556,369.445 775.89,371.778 771.5,373C 761.839,373.5 752.172,373.666 742.5,373.5C 742.5,370.833 742.5,368.167 742.5,365.5 Z"/></g>
<g><path style="opacity:1" fill="#00608c" d="M 816.5,341.5 C 844.833,341.5 873.167,341.5 901.5,341.5C 901.5,349.5 901.5,357.5 901.5,365.5C 883.5,365.5 865.5,365.5 847.5,365.5C 847.5,368.167 847.5,370.833 847.5,373.5C 865.5,373.5 883.5,373.5 901.5,373.5C 901.5,381.5 901.5,389.5 901.5,397.5C 883.5,397.5 865.5,397.5 847.5,397.5C 847.5,400.167 847.5,402.833 847.5,405.5C 865.5,405.5 883.5,405.5 901.5,405.5C 901.5,413.5 901.5,421.5 901.5,429.5C 873.167,429.5 844.833,429.5 816.5,429.5C 816.5,400.167 816.5,370.833 816.5,341.5 Z"/></g>
<g><path style="opacity:1" fill="#624d6c" d="M 200.5,341.5 C 200.5,343.5 200.5,345.5 200.5,347.5C 192.967,349.618 186.301,352.618 180.5,356.5C 179.509,360.445 179.176,364.445 179.5,368.5C 179.167,368.5 178.833,368.5 178.5,368.5C 178.5,359.5 178.5,350.5 178.5,341.5C 185.833,341.5 193.167,341.5 200.5,341.5 Z"/></g>
<g><path style="opacity:0.995" fill="#00415f" d="M 391.5,373.5 C 388.968,373.829 387.968,374.995 388.5,377C 387.24,378.113 386.073,378.28 385,377.5C 382.984,379.745 380.651,381.745 378,383.5C 377.667,383.167 377.333,382.833 377,382.5C 376.667,383.5 376.333,384.5 376,385.5C 375.667,385.167 375.333,384.833 375,384.5C 370.782,387.028 366.949,389.362 363.5,391.5C 362.833,400.324 362.167,408.991 361.5,417.5C 361.667,405.495 361.5,393.495 361,381.5C 353.963,389.535 346.63,397.201 339,404.5C 332.971,399.971 327.804,394.638 323.5,388.5C 323.222,386.654 323.889,385.32 325.5,384.5C 326.499,374.188 326.832,363.855 326.5,353.5C 327.488,354.795 328.488,356.128 329.5,357.5C 329.033,366.004 329.533,374.337 331,382.5C 334.964,380.139 339.131,378.305 343.5,377C 344.469,375.242 345.636,374.742 347,375.5C 347.333,374.5 347.667,373.5 348,372.5C 349,372.833 350,373.167 351,373.5C 352.353,372.315 353.52,370.981 354.5,369.5C 355.086,369.709 355.586,370.043 356,370.5C 356.249,369.376 356.749,368.376 357.5,367.5C 359.489,367.468 361.489,366.635 363.5,365C 363.167,364.667 362.833,364.333 362.5,364C 364.5,363.333 366.5,362.667 368.5,362C 368.167,361.667 367.833,361.333 367.5,361C 372.327,358.583 376.327,355.916 379.5,353C 378.285,350.904 377.451,351.071 377,353.5C 377.33,349.892 379.33,347.559 383,346.5C 383.333,346.833 383.667,347.167 384,347.5C 386.333,346.167 388.667,344.833 391,343.5C 391.5,353.494 391.666,363.494 391.5,373.5 Z"/></g>
<g><path style="opacity:1" fill="#48435e" d="M 272.5,351.5 C 271.849,350.909 271.182,350.243 270.5,349.5C 261.517,353.323 252.517,356.989 243.5,360.5C 242.508,364.783 242.174,369.116 242.5,373.5C 242.5,375.833 242.5,378.167 242.5,380.5C 242.795,382.735 242.461,384.735 241.5,386.5C 241.5,371.5 241.5,356.5 241.5,341.5C 251.833,341.5 262.167,341.5 272.5,341.5C 272.5,344.833 272.5,348.167 272.5,351.5 Z"/></g>
<g><path style="opacity:1" fill="#6f5374" d="M 159.5,341.5 C 159.5,344.833 159.5,348.167 159.5,351.5C 150.86,353.891 143.027,357.225 136,361.5C 135.501,365.821 135.334,370.154 135.5,374.5C 135.81,377.713 135.477,380.713 134.5,383.5C 134.5,369.5 134.5,355.5 134.5,341.5C 142.833,341.5 151.167,341.5 159.5,341.5 Z"/></g>
<g><path style="opacity:1" fill="#5a4a66" d="M 201.5,341.5 C 204.167,341.5 206.833,341.5 209.5,341.5C 209.5,347.833 209.5,354.167 209.5,360.5C 208.842,359.602 208.176,358.602 207.5,357.5C 205.473,358.513 203.473,359.513 201.5,360.5C 201.5,354.167 201.5,347.833 201.5,341.5 Z"/></g>
<g><path style="opacity:1" fill="#093f5c" d="M 391.5,429.5 C 391.5,410.833 391.5,392.167 391.5,373.5C 391.666,363.494 391.5,353.494 391,343.5C 388.667,344.833 386.333,346.167 384,347.5C 383.667,347.167 383.333,346.833 383,346.5C 379.33,347.559 377.33,349.892 377,353.5C 377.451,351.071 378.285,350.904 379.5,353C 376.327,355.916 372.327,358.583 367.5,361C 367.833,361.333 368.167,361.667 368.5,362C 366.5,362.667 364.5,363.333 362.5,364C 362.833,364.333 363.167,364.667 363.5,365C 361.489,366.635 359.489,367.468 357.5,367.5C 356.749,368.376 356.249,369.376 356,370.5C 355.586,370.043 355.086,369.709 354.5,369.5C 353.52,370.981 352.353,372.315 351,373.5C 350,373.167 349,372.833 348,372.5C 347.667,373.5 347.333,374.5 347,375.5C 345.636,374.742 344.469,375.242 343.5,377C 339.131,378.305 334.964,380.139 331,382.5C 329.533,374.337 329.033,366.004 329.5,357.5C 332.649,361.095 335.816,364.762 339,368.5C 346.047,359.575 353.214,350.742 360.5,342C 371.161,341.5 381.828,341.333 392.5,341.5C 392.831,371.005 392.498,400.338 391.5,429.5 Z"/></g>
<g><path style="opacity:1" fill="#866187" d="M 73.5,341.5 C 74.8333,341.5 76.1667,341.5 77.5,341.5C 77.5,349.167 77.5,356.833 77.5,364.5C 76.1667,365.167 74.8333,365.833 73.5,366.5C 73.5,358.167 73.5,349.833 73.5,341.5 Z"/></g>
<g><path style="opacity:0.999" fill="#825e83" d="M 79.5,341.5 C 84.8437,341.334 90.1771,341.501 95.5,342C 99.2107,345.954 102.544,350.121 105.5,354.5C 104.85,354.196 104.183,353.863 103.5,353.5C 95.648,357.12 87.648,360.12 79.5,362.5C 79.5,355.5 79.5,348.5 79.5,341.5 Z"/></g>
<g><path style="opacity:0.998" fill="#3c415b" d="M 272.5,351.5 C 272.5,355.833 272.5,360.167 272.5,364.5C 271.844,363.722 271.011,363.056 270,362.5C 260.466,366.374 251.299,370.041 242.5,373.5C 242.174,369.116 242.508,364.783 243.5,360.5C 252.517,356.989 261.517,353.323 270.5,349.5C 271.182,350.243 271.849,350.909 272.5,351.5 Z"/></g>
<g><path style="opacity:1" fill="#564966" d="M 200.5,347.5 C 200.5,351.833 200.5,356.167 200.5,360.5C 194.133,363.762 187.3,367.095 180,370.5C 179.536,369.906 179.369,369.239 179.5,368.5C 179.176,364.445 179.509,360.445 180.5,356.5C 186.301,352.618 192.967,349.618 200.5,347.5 Z"/></g>
<g><path style="opacity:0.999" fill="#78587b" d="M 105.5,354.5 C 108.243,356.239 110.243,358.573 111.5,361.5C 108.762,359.309 105.762,359.142 102.5,361C 99.9816,362.502 97.4816,364.002 95,365.5C 93.984,364.366 93.3173,364.699 93,366.5C 92.586,366.043 92.086,365.709 91.5,365.5C 87.8032,368.068 83.8032,370.068 79.5,371.5C 79.5,368.5 79.5,365.5 79.5,362.5C 87.648,360.12 95.648,357.12 103.5,353.5C 104.183,353.863 104.85,354.196 105.5,354.5 Z"/></g>
<g><path style="opacity:1" fill="#664e6d" d="M 160.5,341.5 C 162.167,341.5 163.833,341.5 165.5,341.5C 165.5,351.5 165.5,361.5 165.5,371.5C 164.834,368.972 164.168,366.306 163.5,363.5C 162.583,364.127 161.583,364.461 160.5,364.5C 160.5,356.833 160.5,349.167 160.5,341.5 Z"/></g>
<g><path style="opacity:1" fill="#005881" d="M 697.5,357.5 C 707.127,383.492 701.46,405.659 680.5,424C 654.865,440.38 630.199,439.046 606.5,420C 600.232,414.381 594.232,408.547 588.5,402.5C 588.047,401.542 587.381,400.708 586.5,400C 588.377,398.815 590.377,397.815 592.5,397C 593.833,396.333 593.833,395.667 592.5,395C 593.449,394.383 594.282,394.549 595,395.5C 595.317,393.699 595.984,393.366 597,394.5C 597.903,393.299 599.069,392.465 600.5,392C 600.167,391.667 599.833,391.333 599.5,391C 601.14,388.661 603.14,387.828 605.5,388.5C 606.333,387.5 607.167,386.5 608,385.5C 608.333,385.833 608.667,386.167 609,386.5C 610.193,384.395 611.86,382.728 614,381.5C 614.333,381.833 614.667,382.167 615,382.5C 616.101,380.606 617.434,379.939 619,380.5C 620.333,378.833 621.667,377.167 623,375.5C 623.186,378.036 623.686,380.369 624.5,382.5C 627.541,394.037 635.041,400.37 647,401.5C 658.048,400.236 664.882,394.236 667.5,383.5C 668.166,380.311 668.833,376.977 669.5,373.5C 672.251,373.045 674.418,371.711 676,369.5C 676.333,369.833 676.667,370.167 677,370.5C 679.419,368.15 681.752,365.816 684,363.5C 684.333,364.167 684.667,364.833 685,365.5C 687.046,364.089 688.879,362.423 690.5,360.5C 691.086,360.709 691.586,361.043 692,361.5C 693.487,360.747 693.654,359.914 692.5,359C 694.154,358.392 695.821,357.892 697.5,357.5 Z"/></g>
<g><path style="opacity:1" fill="#624e6c" d="M 159.5,351.5 C 159.5,356.167 159.5,360.833 159.5,365.5C 151.356,368.104 143.356,371.104 135.5,374.5C 135.334,370.154 135.501,365.821 136,361.5C 143.027,357.225 150.86,353.891 159.5,351.5 Z"/></g>
<g><path style="opacity:1" fill="#263e59" d="M 321.5,348.5 C 321.8,353.099 321.467,357.599 320.5,362C 319.069,362.465 317.903,363.299 317,364.5C 316.667,364.167 316.333,363.833 316,363.5C 314.437,365.985 312.77,367.651 311,368.5C 309.16,367.167 308.66,367.334 309.5,369C 301.654,372.196 294.154,375.363 287,378.5C 286.827,384.016 286.327,389.349 285.5,394.5C 285.5,387.167 285.5,379.833 285.5,372.5C 286.483,368.702 286.817,364.702 286.5,360.5C 297.54,356.488 308.54,352.154 319.5,347.5C 320.183,347.863 320.85,348.196 321.5,348.5 Z"/></g>
<g><path style="opacity:1" fill="#566b9d" d="M 70.5,341.5 C 71.5,341.5 72.5,341.5 73.5,341.5C 73.5,349.833 73.5,358.167 73.5,366.5C 73.5,368.833 73.5,371.167 73.5,373.5C 72.5,373.5 71.5,373.5 70.5,373.5C 70.5,371.5 70.5,369.5 70.5,367.5C 70.5,358.833 70.5,350.167 70.5,341.5 Z"/></g>
<g><path style="opacity:0.998" fill="#343f59" d="M 272.5,364.5 C 272.5,366.833 272.5,369.167 272.5,371.5C 271.206,370.71 270.039,369.71 269,368.5C 266.459,370.693 263.625,372.527 260.5,374C 254.577,376.465 248.577,378.632 242.5,380.5C 242.5,378.167 242.5,375.833 242.5,373.5C 251.299,370.041 260.466,366.374 270,362.5C 271.011,363.056 271.844,363.722 272.5,364.5 Z"/></g>
<g><path style="opacity:0.993" fill="#866085" d="M 70.5,341.5 C 70.5,350.167 70.5,358.833 70.5,367.5C 68.205,367.689 66.205,369.023 64.5,371.5C 64.5,361.5 64.5,351.5 64.5,341.5C 66.5,341.5 68.5,341.5 70.5,341.5 Z"/></g>
<g><path style="opacity:1" fill="#6f5474" d="M 111.5,361.5 C 112.5,361.833 113.167,362.5 113.5,363.5C 113.859,365.371 114.859,366.871 116.5,368C 111.406,370.543 106.073,372.543 100.5,374C 93.5691,378.247 86.5691,381.413 79.5,383.5C 79.5,382.5 79.5,381.5 79.5,380.5C 79.5,377.5 79.5,374.5 79.5,371.5C 83.8032,370.068 87.8032,368.068 91.5,365.5C 92.086,365.709 92.586,366.043 93,366.5C 93.3173,364.699 93.984,364.366 95,365.5C 97.4816,364.002 99.9816,362.502 102.5,361C 105.762,359.142 108.762,359.309 111.5,361.5 Z"/></g>
<g><path style="opacity:1" fill="#4a435e" d="M 200.5,360.5 C 200.5,366.167 200.5,371.833 200.5,377.5C 193.604,380.448 186.604,383.115 179.5,385.5C 179.5,388.5 179.5,391.5 179.5,394.5C 178.507,386.016 178.174,377.349 178.5,368.5C 178.833,368.5 179.167,368.5 179.5,368.5C 179.369,369.239 179.536,369.906 180,370.5C 187.3,367.095 194.133,363.762 200.5,360.5 Z"/></g>
<g><path style="opacity:1" fill="#46425d" d="M 209.5,360.5 C 209.5,367.833 209.5,375.167 209.5,382.5C 208.778,382.082 208.278,381.416 208,380.5C 205.779,381.406 203.612,382.406 201.5,383.5C 201.5,375.833 201.5,368.167 201.5,360.5C 203.473,359.513 205.473,358.513 207.5,357.5C 208.176,358.602 208.842,359.602 209.5,360.5 Z"/></g>
<g><path style="opacity:1" fill="#4f6595" d="M 77.5,341.5 C 78.1667,341.5 78.8333,341.5 79.5,341.5C 79.5,348.5 79.5,355.5 79.5,362.5C 79.5,365.5 79.5,368.5 79.5,371.5C 79.5,374.5 79.5,377.5 79.5,380.5C 78.8333,380.833 78.1667,381.167 77.5,381.5C 77.5,375.833 77.5,370.167 77.5,364.5C 77.5,356.833 77.5,349.167 77.5,341.5 Z"/></g>
<g><path style="opacity:1" fill="#2a3d58" d="M 272.5,371.5 C 272.5,374.5 272.5,377.5 272.5,380.5C 271.732,379.737 271.232,378.737 271,377.5C 269.399,379.972 267.399,380.972 265,380.5C 264.167,381.5 263.333,382.5 262.5,383.5C 261.158,382.098 260.324,382.431 260,384.5C 258.612,383.446 257.112,383.28 255.5,384C 250.543,386.505 245.877,389.339 241.5,392.5C 241.5,390.5 241.5,388.5 241.5,386.5C 242.461,384.735 242.795,382.735 242.5,380.5C 248.577,378.632 254.577,376.465 260.5,374C 263.625,372.527 266.459,370.693 269,368.5C 270.039,369.71 271.206,370.71 272.5,371.5 Z"/></g>
<g><path style="opacity:1" fill="#004a6d" d="M 446.5,373.5 C 455.559,373.154 464.559,373.654 473.5,375C 479.508,376.857 484.175,380.357 487.5,385.5C 485.795,386.535 484.128,386.535 482.5,385.5C 478.288,389.19 473.621,392.357 468.5,395C 468.833,395.333 469.167,395.667 469.5,396C 467.671,396.273 466.171,397.107 465,398.5C 464.667,398.167 464.333,397.833 464,397.5C 462.648,400.107 461.148,402.44 459.5,404.5C 461.225,401.563 460.559,399.397 457.5,398C 446.833,397.667 436.167,397.333 425.5,397C 422.809,396.844 420.476,396.011 418.5,394.5C 418.312,392.897 418.812,391.563 420,390.5C 420.333,390.833 420.667,391.167 421,391.5C 423.403,390.219 425.237,388.386 426.5,386C 428.608,385.64 430.608,384.973 432.5,384C 433.469,382.242 434.636,381.742 436,382.5C 438.245,380.377 440.245,378.044 442,375.5C 442.333,375.833 442.667,376.167 443,376.5C 444.145,375.364 445.312,374.364 446.5,373.5 Z"/></g>
<g><path style="opacity:1" fill="#005e89" d="M 804.5,375.5 C 802.275,385.563 796.275,392.397 786.5,396C 792.833,407 799.167,418 805.5,429C 794.5,429.667 783.5,429.667 772.5,429C 766.759,419.016 761.425,408.85 756.5,398.5C 756.119,397.069 755.119,396.236 753.5,396C 754.76,394.887 755.927,394.72 757,395.5C 759.694,393.797 761.694,391.464 763,388.5C 763.333,388.833 763.667,389.167 764,389.5C 767.752,387.704 771.086,385.371 774,382.5C 774.333,382.833 774.667,383.167 775,383.5C 775.317,381.699 775.984,381.366 777,382.5C 778.264,380.393 780.097,379.393 782.5,379.5C 782.491,377.692 782.991,376.025 784,374.5C 784.333,374.833 784.667,375.167 785,375.5C 786.171,374.107 787.671,373.273 789.5,373C 790.126,372.25 790.626,371.416 791,370.5C 791.718,371.451 792.551,371.617 793.5,371C 794.833,369 796.5,367.333 798.5,366C 799.549,365.508 800.549,365.674 801.5,366.5C 802.333,365.5 803.167,364.5 804,363.5C 804.499,367.486 804.666,371.486 804.5,375.5 Z"/></g>
<g><path style="opacity:0.999" fill="#614c6a" d="M 113.5,363.5 C 119.247,368.91 124.247,374.91 128.5,381.5C 127.542,381.047 126.708,380.381 126,379.5C 117.768,382.801 109.602,386.301 101.5,390C 102.252,390.671 102.586,391.504 102.5,392.5C 100.233,389.729 97.733,387.062 95,384.5C 94.5007,389.489 94.3341,394.489 94.5,399.5C 89.5,401.5 84.5,403.5 79.5,405.5C 79.5,398.167 79.5,390.833 79.5,383.5C 86.5691,381.413 93.5691,378.247 100.5,374C 106.073,372.543 111.406,370.543 116.5,368C 114.859,366.871 113.859,365.371 113.5,363.5 Z"/></g>
<g><path style="opacity:1" fill="#564763" d="M 159.5,365.5 C 159.5,370.167 159.5,374.833 159.5,379.5C 146.938,384.047 134.272,389.213 121.5,395C 120.167,395.667 119.167,396.667 118.5,398C 116.392,398.36 114.392,399.027 112.5,400C 111.748,400.671 111.414,401.504 111.5,402.5C 107.788,399.789 104.788,396.456 102.5,392.5C 102.586,391.504 102.252,390.671 101.5,390C 109.602,386.301 117.768,382.801 126,379.5C 126.708,380.381 127.542,381.047 128.5,381.5C 130.463,382.96 132.296,384.627 134,386.5C 134.483,385.552 134.649,384.552 134.5,383.5C 135.477,380.713 135.81,377.713 135.5,374.5C 143.356,371.104 151.356,368.104 159.5,365.5 Z"/></g>
<g><path style="opacity:1" fill="#073e5b" d="M 321.5,347.5 C 323.156,349.46 324.823,351.46 326.5,353.5C 326.832,363.855 326.499,374.188 325.5,384.5C 323.889,385.32 323.222,386.654 323.5,388.5C 320.885,386.621 318.719,384.288 317,381.5C 316.5,393.829 316.333,406.162 316.5,418.5C 315.833,409.658 315.167,400.658 314.5,391.5C 313.304,391.846 313.304,392.346 314.5,393C 312.956,393.29 311.623,393.956 310.5,395C 315.816,395.153 315.483,396.153 309.5,398C 311.901,398.805 311.734,399.638 309,400.5C 307.667,400.5 306.333,400.5 305,400.5C 304.517,401.448 304.351,402.448 304.5,403.5C 303.127,403.343 301.793,403.51 300.5,404C 299.167,404.667 299.167,405.333 300.5,406C 299.551,406.617 298.718,406.451 298,405.5C 297.683,407.301 297.016,407.634 296,406.5C 295.424,409.124 294.09,409.791 292,408.5C 291.241,410.635 289.741,411.968 287.5,412.5C 286.505,418.128 286.171,423.794 286.5,429.5C 285.505,418.012 285.172,406.345 285.5,394.5C 286.327,389.349 286.827,384.016 287,378.5C 294.154,375.363 301.654,372.196 309.5,369C 308.66,367.334 309.16,367.167 311,368.5C 312.77,367.651 314.437,365.985 316,363.5C 316.333,363.833 316.667,364.167 317,364.5C 317.903,363.299 319.069,362.465 320.5,362C 321.467,357.599 321.8,353.099 321.5,348.5C 321.5,348.167 321.5,347.833 321.5,347.5 Z"/></g>
<g><path style="opacity:1" fill="#715576" d="M 77.5,364.5 C 77.5,370.167 77.5,375.833 77.5,381.5C 77.5,382.833 77.5,384.167 77.5,385.5C 76.0413,385.433 74.7079,385.766 73.5,386.5C 73.5,382.167 73.5,377.833 73.5,373.5C 73.5,371.167 73.5,368.833 73.5,366.5C 74.8333,365.833 76.1667,365.167 77.5,364.5 Z"/></g>
<g><path style="opacity:1" fill="#004668" d="M 391.5,373.5 C 391.5,392.167 391.5,410.833 391.5,429.5C 381.5,429.5 371.5,429.5 361.5,429.5C 361.5,425.5 361.5,421.5 361.5,417.5C 362.167,408.991 362.833,400.324 363.5,391.5C 366.949,389.362 370.782,387.028 375,384.5C 375.333,384.833 375.667,385.167 376,385.5C 376.333,384.5 376.667,383.5 377,382.5C 377.333,382.833 377.667,383.167 378,383.5C 380.651,381.745 382.984,379.745 385,377.5C 386.073,378.28 387.24,378.113 388.5,377C 387.968,374.995 388.968,373.829 391.5,373.5 Z"/></g>
<g><path style="opacity:1" fill="#3d3f59" d="M 200.5,377.5 C 200.5,381.833 200.5,386.167 200.5,390.5C 194.822,392.504 189.155,394.504 183.5,396.5C 182.833,398.833 182.167,401.167 181.5,403.5C 180.087,400.781 179.42,397.781 179.5,394.5C 179.5,391.5 179.5,388.5 179.5,385.5C 186.604,383.115 193.604,380.448 200.5,377.5 Z"/></g>
<g><path style="opacity:1" fill="#004d71" d="M 487.5,385.5 C 493.955,395.608 494.121,405.941 488,416.5C 483.11,423.037 476.61,427.204 468.5,429C 447.169,429.5 425.836,429.667 404.5,429.5C 404.5,421.5 404.5,413.5 404.5,405.5C 422.88,405.807 441.213,405.474 459.5,404.5C 461.148,402.44 462.648,400.107 464,397.5C 464.333,397.833 464.667,398.167 465,398.5C 466.171,397.107 467.671,396.273 469.5,396C 469.167,395.667 468.833,395.333 468.5,395C 473.621,392.357 478.288,389.19 482.5,385.5C 484.128,386.535 485.795,386.535 487.5,385.5 Z"/></g>
<g><path style="opacity:1" fill="#4e445e" d="M 165.5,371.5 C 165.5,380.833 165.5,390.167 165.5,399.5C 164.683,397.031 164.183,394.365 164,391.5C 163.047,393.373 161.88,393.706 160.5,392.5C 160.5,383.167 160.5,373.833 160.5,364.5C 161.583,364.461 162.583,364.127 163.5,363.5C 164.168,366.306 164.834,368.972 165.5,371.5 Z"/></g>
<g><path style="opacity:0.999" fill="#005379" d="M 558.5,399.5 C 558.5,409.5 558.5,419.5 558.5,429.5C 548.5,429.5 538.5,429.5 528.5,429.5C 528.5,418.5 528.5,407.5 528.5,396.5C 531.462,396.045 534.129,394.879 536.5,393C 543.665,387.706 550.498,382.873 557,378.5C 557.171,385.679 557.671,392.679 558.5,399.5 Z"/></g>
<g><path style="opacity:0.995" fill="#6d5272" d="M 70.5,367.5 C 70.5,369.5 70.5,371.5 70.5,373.5C 70.5,380.833 70.5,388.167 70.5,395.5C 68.4214,395.971 66.4214,396.637 64.5,397.5C 64.5,388.833 64.5,380.167 64.5,371.5C 66.205,369.023 68.205,367.689 70.5,367.5 Z"/></g>
<g><path style="opacity:1" fill="#49425c" d="M 159.5,379.5 C 159.5,384.167 159.5,388.833 159.5,393.5C 154.331,395.996 148.831,398.663 143,401.5C 142.667,401.167 142.333,400.833 142,400.5C 140.59,402.884 138.59,404.55 136,405.5C 131.569,407.253 126.736,409.087 121.5,411C 121.167,411.333 120.833,411.667 120.5,412C 121.823,412.816 122.489,413.983 122.5,415.5C 118.487,411.485 114.821,407.152 111.5,402.5C 111.414,401.504 111.748,400.671 112.5,400C 114.392,399.027 116.392,398.36 118.5,398C 119.167,396.667 120.167,395.667 121.5,395C 134.272,389.213 146.938,384.047 159.5,379.5 Z"/></g>
<g><path style="opacity:1" fill="#373e57" d="M 209.5,382.5 C 209.372,386.881 209.705,391.215 210.5,395.5C 209.85,395.196 209.183,394.863 208.5,394.5C 206.382,395.946 204.049,396.613 201.5,396.5C 201.5,392.167 201.5,387.833 201.5,383.5C 203.612,382.406 205.779,381.406 208,380.5C 208.278,381.416 208.778,382.082 209.5,382.5 Z"/></g>
<g><path style="opacity:1" fill="#004160" d="M 316.5,418.5 C 316.5,422.167 316.5,425.833 316.5,429.5C 306.5,429.5 296.5,429.5 286.5,429.5C 286.171,423.794 286.505,418.128 287.5,412.5C 289.741,411.968 291.241,410.635 292,408.5C 294.09,409.791 295.424,409.124 296,406.5C 297.016,407.634 297.683,407.301 298,405.5C 298.718,406.451 299.551,406.617 300.5,406C 299.167,405.333 299.167,404.667 300.5,404C 301.793,403.51 303.127,403.343 304.5,403.5C 304.351,402.448 304.517,401.448 305,400.5C 306.333,400.5 307.667,400.5 309,400.5C 311.734,399.638 311.901,398.805 309.5,398C 315.483,396.153 315.816,395.153 310.5,395C 311.623,393.956 312.956,393.29 314.5,393C 313.304,392.346 313.304,391.846 314.5,391.5C 315.167,400.658 315.833,409.658 316.5,418.5 Z"/></g>
<g><path style="opacity:1" fill="#435a84" d="M 70.5,373.5 C 71.5,373.5 72.5,373.5 73.5,373.5C 73.5,377.833 73.5,382.167 73.5,386.5C 73.5,390.5 73.5,394.5 73.5,398.5C 72.5,398.5 71.5,398.5 70.5,398.5C 70.5,397.5 70.5,396.5 70.5,395.5C 70.5,388.167 70.5,380.833 70.5,373.5 Z"/></g>
<g><path style="opacity:0.998" fill="#013d58" d="M 270.5,400.5 C 266.007,417.488 255.007,427.321 237.5,430C 229.167,430.667 220.833,430.667 212.5,430C 209.621,429.454 206.954,428.621 204.5,427.5C 203.248,425.661 203.248,423.828 204.5,422C 225.944,412.475 247.944,403.975 270.5,396.5C 270.5,397.833 270.5,399.167 270.5,400.5 Z"/></g>
<g><path style="opacity:1" fill="#2f3c56" d="M 200.5,390.5 C 200.831,397.863 200.497,405.197 199.5,412.5C 196.21,413.174 193.21,415.008 190.5,418C 191.381,418.708 192.047,419.542 192.5,420.5C 186.618,416.435 182.951,410.768 181.5,403.5C 182.167,401.167 182.833,398.833 183.5,396.5C 189.155,394.504 194.822,392.504 200.5,390.5 Z"/></g>
<g><path style="opacity:1" fill="#354f75" d="M 79.5,380.5 C 79.5,381.5 79.5,382.5 79.5,383.5C 79.5,390.833 79.5,398.167 79.5,405.5C 79.5,413.5 79.5,421.5 79.5,429.5C 78.8333,429.5 78.1667,429.5 77.5,429.5C 77.5,424.5 77.5,419.5 77.5,414.5C 77.5,404.833 77.5,395.167 77.5,385.5C 77.5,384.167 77.5,382.833 77.5,381.5C 78.1667,381.167 78.8333,380.833 79.5,380.5 Z"/></g>
<g><path style="opacity:1" fill="#3d3e57" d="M 159.5,393.5 C 159.5,398.833 159.5,404.167 159.5,409.5C 149.854,412.836 140.187,416.336 130.5,420C 129.244,420.417 128.577,421.25 128.5,422.5C 126.273,420.393 124.273,418.06 122.5,415.5C 122.489,413.983 121.823,412.816 120.5,412C 120.833,411.667 121.167,411.333 121.5,411C 126.736,409.087 131.569,407.253 136,405.5C 138.59,404.55 140.59,402.884 142,400.5C 142.333,400.833 142.667,401.167 143,401.5C 148.831,398.663 154.331,395.996 159.5,393.5 Z"/></g>
<g><path style="opacity:1" fill="#213c56" d="M 272.5,380.5 C 272.821,385.695 272.487,390.695 271.5,395.5C 271.664,392.813 271.497,390.146 271,387.5C 260.179,392.165 249.345,396.665 238.5,401C 237.542,402.147 237.875,403.147 239.5,404C 237.956,404.29 236.623,404.956 235.5,406C 233.524,406.188 231.524,406.021 229.5,405.5C 227.626,405.39 226.126,406.056 225,407.5C 224.667,407.167 224.333,406.833 224,406.5C 222.378,408.5 220.545,410.333 218.5,412C 213.105,414.854 207.438,417.021 201.5,418.5C 201.5,411.167 201.5,403.833 201.5,396.5C 204.049,396.613 206.382,395.946 208.5,394.5C 209.183,394.863 209.85,395.196 210.5,395.5C 215.185,403.463 222.185,406.296 231.5,404C 236.82,401.85 240.153,398.017 241.5,392.5C 245.877,389.339 250.543,386.505 255.5,384C 257.112,383.28 258.612,383.446 260,384.5C 260.324,382.431 261.158,382.098 262.5,383.5C 263.333,382.5 264.167,381.5 265,380.5C 267.399,380.972 269.399,379.972 271,377.5C 271.232,378.737 271.732,379.737 272.5,380.5 Z"/></g>
<g><path style="opacity:1" fill="#153d59" d="M 200.5,341.5 C 200.833,341.5 201.167,341.5 201.5,341.5C 201.5,347.833 201.5,354.167 201.5,360.5C 201.5,368.167 201.5,375.833 201.5,383.5C 201.5,387.833 201.5,392.167 201.5,396.5C 201.5,403.833 201.5,411.167 201.5,418.5C 207.438,417.021 213.105,414.854 218.5,412C 220.545,410.333 222.378,408.5 224,406.5C 224.333,406.833 224.667,407.167 225,407.5C 226.126,406.056 227.626,405.39 229.5,405.5C 231.524,406.021 233.524,406.188 235.5,406C 236.623,404.956 237.956,404.29 239.5,404C 237.875,403.147 237.542,402.147 238.5,401C 249.345,396.665 260.179,392.165 271,387.5C 271.497,390.146 271.664,392.813 271.5,395.5C 271.784,397.415 271.451,399.081 270.5,400.5C 270.5,399.167 270.5,397.833 270.5,396.5C 247.944,403.975 225.944,412.475 204.5,422C 203.248,423.828 203.248,425.661 204.5,427.5C 199.55,426.695 195.55,424.362 192.5,420.5C 192.047,419.542 191.381,418.708 190.5,418C 193.21,415.008 196.21,413.174 199.5,412.5C 200.497,405.197 200.831,397.863 200.5,390.5C 200.5,386.167 200.5,381.833 200.5,377.5C 200.5,371.833 200.5,366.167 200.5,360.5C 200.5,356.167 200.5,351.833 200.5,347.5C 200.5,345.5 200.5,343.5 200.5,341.5 Z"/></g>
<g><path style="opacity:1" fill="#594865" d="M 77.5,385.5 C 77.5,395.167 77.5,404.833 77.5,414.5C 76.1667,414.833 74.8333,415.167 73.5,415.5C 73.5,409.833 73.5,404.167 73.5,398.5C 73.5,394.5 73.5,390.5 73.5,386.5C 74.7079,385.766 76.0413,385.433 77.5,385.5 Z"/></g>
<g><path style="opacity:1" fill="#4c435d" d="M 94.5,399.5 C 94.5,409.5 94.5,419.5 94.5,429.5C 89.5,429.5 84.5,429.5 79.5,429.5C 79.5,421.5 79.5,413.5 79.5,405.5C 84.5,403.5 89.5,401.5 94.5,399.5 Z"/></g>
<g><path style="opacity:1" fill="#323c54" d="M 159.5,409.5 C 159.826,413.884 159.492,418.217 158.5,422.5C 152.663,424.694 146.996,427.027 141.5,429.5C 138.813,429.664 136.146,429.497 133.5,429C 132.001,426.672 130.334,424.505 128.5,422.5C 128.577,421.25 129.244,420.417 130.5,420C 140.187,416.336 149.854,412.836 159.5,409.5 Z"/></g>
<g><path style="opacity:1" fill="#353d56" d="M 165.5,399.5 C 165.5,406.5 165.5,413.5 165.5,420.5C 163.968,419.63 162.468,419.964 161,421.5C 160.5,411.839 160.334,402.172 160.5,392.5C 161.88,393.706 163.047,393.373 164,391.5C 164.183,394.365 164.683,397.031 165.5,399.5 Z"/></g>
<g><path style="opacity:0.987" fill="#524560" d="M 70.5,395.5 C 70.5,396.5 70.5,397.5 70.5,398.5C 70.5,408.833 70.5,419.167 70.5,429.5C 68.5,429.5 66.5,429.5 64.5,429.5C 64.5,418.833 64.5,408.167 64.5,397.5C 66.4214,396.637 68.4214,395.971 70.5,395.5 Z"/></g>
<g><path style="opacity:1" fill="#2f4b6f" d="M 70.5,398.5 C 71.5,398.5 72.5,398.5 73.5,398.5C 73.5,404.167 73.5,409.833 73.5,415.5C 73.5,420.167 73.5,424.833 73.5,429.5C 72.5,429.5 71.5,429.5 70.5,429.5C 70.5,419.167 70.5,408.833 70.5,398.5 Z"/></g>
<g><path style="opacity:1" fill="#49415b" d="M 77.5,414.5 C 77.5,419.5 77.5,424.5 77.5,429.5C 76.1667,429.5 74.8333,429.5 73.5,429.5C 73.5,424.833 73.5,420.167 73.5,415.5C 74.8333,415.167 76.1667,414.833 77.5,414.5 Z"/></g>
<g><path style="opacity:1" fill="#27405c" d="M 159.5,341.5 C 159.833,341.5 160.167,341.5 160.5,341.5C 160.5,349.167 160.5,356.833 160.5,364.5C 160.5,373.833 160.5,383.167 160.5,392.5C 160.334,402.172 160.5,411.839 161,421.5C 162.468,419.964 163.968,419.63 165.5,420.5C 165.5,423.5 165.5,426.5 165.5,429.5C 157.5,429.5 149.5,429.5 141.5,429.5C 146.996,427.027 152.663,424.694 158.5,422.5C 159.492,418.217 159.826,413.884 159.5,409.5C 159.5,404.167 159.5,398.833 159.5,393.5C 159.5,388.833 159.5,384.167 159.5,379.5C 159.5,374.833 159.5,370.167 159.5,365.5C 159.5,360.833 159.5,356.167 159.5,351.5C 159.5,348.167 159.5,344.833 159.5,341.5 Z"/></g>
</svg>
